<svg width="165" height="26" viewBox="0 0 165 26" fill="none" xmlns="http://www.w3.org/2000/svg">
<path d="M16.014 20.638H6.562L4.998 25.16H-2.66731e-06L8.534 1.394H14.076L22.61 25.16H17.578L16.014 20.638ZM14.722 16.83L11.288 6.902L7.854 16.83H14.722ZM23.8959 15.674C23.8959 13.77 24.2699 12.0813 25.0179 10.608C25.7886 9.13467 26.8199 8.00134 28.1119 7.208C29.4266 6.41467 30.8886 6.018 32.4979 6.018C33.9032 6.018 35.1272 6.30134 36.1699 6.868C37.2352 7.43467 38.0852 8.14867 38.7199 9.01V6.324H43.5139V25.16H38.7199V22.406C38.1079 23.29 37.2579 24.0267 36.1699 24.616C35.1046 25.1827 33.8692 25.466 32.4639 25.466C30.8772 25.466 29.4266 25.058 28.1119 24.242C26.8199 23.426 25.7886 22.2813 25.0179 20.808C24.2699 19.312 23.8959 17.6007 23.8959 15.674ZM38.7199 15.742C38.7199 14.586 38.4932 13.6 38.0399 12.784C37.5866 11.9453 36.9746 11.3107 36.2039 10.88C35.4332 10.4267 34.6059 10.2 33.7219 10.2C32.8379 10.2 32.0219 10.4153 31.2739 10.846C30.5259 11.2767 29.9139 11.9113 29.4379 12.75C28.9846 13.566 28.7579 14.5407 28.7579 15.674C28.7579 16.8073 28.9846 17.8047 29.4379 18.666C29.9139 19.5047 30.5259 20.1507 31.2739 20.604C32.0446 21.0573 32.8606 21.284 33.7219 21.284C34.6059 21.284 35.4332 21.0687 36.2039 20.638C36.9746 20.1847 37.5866 19.55 38.0399 18.734C38.4932 17.8953 38.7199 16.898 38.7199 15.742ZM72.2104 8.772C72.2104 10.0413 71.9044 11.2313 71.2924 12.342C70.7031 13.4527 69.7624 14.348 68.4704 15.028C67.2011 15.708 65.5918 16.048 63.6424 16.048H59.6644V25.16H54.9044V1.428H63.6424C65.4784 1.428 67.0424 1.74534 68.3344 2.38C69.6264 3.01467 70.5898 3.88734 71.2244 4.998C71.8818 6.10867 72.2104 7.36667 72.2104 8.772ZM63.4384 12.206C64.7531 12.206 65.7278 11.9113 66.3624 11.322C66.9971 10.71 67.3144 9.86 67.3144 8.772C67.3144 6.46 66.0224 5.304 63.4384 5.304H59.6644V12.206H63.4384ZM83.274 25.466C81.4606 25.466 79.8286 25.0693 78.378 24.276C76.9273 23.46 75.7826 22.3153 74.944 20.842C74.128 19.3687 73.72 17.6687 73.72 15.742C73.72 13.8153 74.1393 12.1153 74.978 10.642C75.8393 9.16867 77.0066 8.03534 78.48 7.242C79.9533 6.426 81.5966 6.018 83.41 6.018C85.2233 6.018 86.8666 6.426 88.34 7.242C89.8133 8.03534 90.9693 9.16867 91.808 10.642C92.6693 12.1153 93.1 13.8153 93.1 15.742C93.1 17.6687 92.658 19.3687 91.774 20.842C90.9126 22.3153 89.734 23.46 88.238 24.276C86.7646 25.0693 85.11 25.466 83.274 25.466ZM83.274 21.318C84.1353 21.318 84.94 21.114 85.688 20.706C86.4586 20.2753 87.0706 19.6407 87.524 18.802C87.9773 17.9633 88.204 16.9433 88.204 15.742C88.204 13.9513 87.728 12.58 86.776 11.628C85.8466 10.6533 84.702 10.166 83.342 10.166C81.982 10.166 80.8373 10.6533 79.908 11.628C79.0013 12.58 78.548 13.9513 78.548 15.742C78.548 17.5327 78.99 18.9153 79.874 19.89C80.7806 20.842 81.914 21.318 83.274 21.318ZM94.6876 15.742C94.6876 13.7927 95.0843 12.0927 95.8776 10.642C96.6709 9.16867 97.7703 8.03534 99.1756 7.242C100.581 6.426 102.19 6.018 104.004 6.018C106.338 6.018 108.265 6.60734 109.784 7.786C111.325 8.942 112.356 10.574 112.878 12.682H107.744C107.472 11.866 107.007 11.2313 106.35 10.778C105.715 10.302 104.922 10.064 103.97 10.064C102.61 10.064 101.533 10.5627 100.74 11.56C99.9463 12.5347 99.5496 13.9287 99.5496 15.742C99.5496 17.5327 99.9463 18.9267 100.74 19.924C101.533 20.8987 102.61 21.386 103.97 21.386C105.896 21.386 107.154 20.5247 107.744 18.802H112.878C112.356 20.842 111.325 22.4627 109.784 23.664C108.242 24.8653 106.316 25.466 104.004 25.466C102.19 25.466 100.581 25.0693 99.1756 24.276C97.7703 23.46 96.6709 22.3267 95.8776 20.876C95.0843 19.4027 94.6876 17.6913 94.6876 15.742ZM126.837 25.16L120.445 17.136V25.16H115.685V3.33786e-06H120.445V14.314L126.769 6.324H132.957L124.661 15.776L133.025 25.16H126.837ZM152.37 15.334C152.37 16.014 152.325 16.626 152.234 17.17H138.464C138.578 18.53 139.054 19.5953 139.892 20.366C140.731 21.1367 141.762 21.522 142.986 21.522C144.754 21.522 146.012 20.7627 146.76 19.244H151.894C151.35 21.0573 150.308 22.5533 148.766 23.732C147.225 24.888 145.332 25.466 143.088 25.466C141.275 25.466 139.643 25.0693 138.192 24.276C136.764 23.46 135.642 22.3153 134.826 20.842C134.033 19.3687 133.636 17.6687 133.636 15.742C133.636 13.7927 134.033 12.0813 134.826 10.608C135.62 9.13467 136.73 8.00134 138.158 7.208C139.586 6.41467 141.23 6.018 143.088 6.018C144.879 6.018 146.477 6.40334 147.882 7.174C149.31 7.94467 150.41 9.044 151.18 10.472C151.974 11.8773 152.37 13.498 152.37 15.334ZM147.44 13.974C147.418 12.75 146.976 11.7753 146.114 11.05C145.253 10.302 144.199 9.928 142.952 9.928C141.774 9.928 140.776 10.2907 139.96 11.016C139.167 11.7187 138.68 12.7047 138.498 13.974H147.44ZM160.707 10.234V19.346C160.707 19.9807 160.854 20.4453 161.149 20.74C161.466 21.012 161.987 21.148 162.713 21.148H164.923V25.16H161.931C157.919 25.16 155.913 23.2107 155.913 19.312V10.234H153.669V6.324H155.913V1.666H160.707V6.324H164.923V10.234H160.707Z" fill="#BB1623"/>
</svg>
